<?xml version="1.0" encoding="iso-8859-1"?>
<!-- Generator: Adobe Illustrator 19.0.0, SVG Export Plug-In . SVG Version: 6.00 Build 0)  -->
<svg version="1.1" id="Capa_1" xmlns="http://www.w3.org/2000/svg" xmlns:xlink="http://www.w3.org/1999/xlink" x="0px" y="0px"
	 viewBox="0 0 512 512" style="enable-background:new 0 0 512 512;" xml:space="preserve" fill="#242423">
<g>
	<g>
		<path d="M506.688,86.765c-3.285-1.899-7.339-1.92-10.645-0.021l-133.376,76.203v-45.611c0-17.643-14.357-32-32-32H55.275
			C17.301,85.336,0,173.805,0,256.003s17.301,170.667,55.275,170.667h275.392c17.643,0,32-14.357,32-32v-45.611l133.376,76.203
			c1.643,0.939,3.477,1.408,5.291,1.408c1.856,0,3.691-0.469,5.355-1.429c3.285-1.92,5.312-5.419,5.312-9.237v-320
			C512,92.205,509.973,88.685,506.688,86.765z"/>
	</g>
</g>
<g>
</g>
<g>
</g>
<g>
</g>
<g>
</g>
<g>
</g>
<g>
</g>
<g>
</g>
<g>
</g>
<g>
</g>
<g>
</g>
<g>
</g>
<g>
</g>
<g>
</g>
<g>
</g>
<g>
</g>
</svg>
