<svg width="26" height="22" viewBox="0 0 26 22" fill="none" xmlns="http://www.w3.org/2000/svg">
<path d="M17.1028 1.19737C8.25661 -2.07197 0.179688 5.50696 0.179688 15.315C0.179688 16.6524 0.307893 19.1787 0.692508 20.6648C0.692508 20.962 0.948918 21.2592 1.20533 21.2592H24.6669C24.9233 21.2592 25.1797 20.962 25.3079 20.6648C25.5643 19.1787 25.8207 16.6524 25.8207 15.315C25.8207 8.9249 22.3592 3.12925 17.1028 1.19737ZM13.0002 3.42647C13.7694 3.42647 14.2823 4.02089 14.2823 4.91253C14.2823 5.80417 13.7694 6.39859 13.0002 6.39859C12.231 6.39859 11.7181 5.80417 11.7181 4.91253C11.7181 4.02089 12.231 3.42647 13.0002 3.42647ZM4.02584 16.801C3.25661 16.801 2.74379 16.2066 2.74379 15.315C2.74379 14.4233 3.25661 13.8289 4.02584 13.8289C4.79507 13.8289 5.30789 14.4233 5.30789 15.315C5.30789 16.2066 4.79507 16.801 4.02584 16.801ZM7.61558 9.07351C7.10276 9.66793 6.33353 9.66793 5.82071 9.07351C5.30789 8.47908 5.30789 7.43884 5.69251 6.84441C6.20533 6.24999 6.97456 6.24999 7.48738 6.84441C8.0002 7.43884 8.0002 8.47908 7.61558 9.07351ZM13.0002 18.2871C11.5899 18.2871 10.3079 16.801 10.6925 15.315C11.0771 13.8289 13.0002 9.37072 13.0002 9.37072C13.0002 9.37072 14.9233 13.8289 15.3079 15.315C15.6925 16.801 14.4105 18.2871 13.0002 18.2871ZM20.3079 9.07351C19.7951 9.66793 19.0258 9.66793 18.513 9.07351C18.0002 8.47908 18.0002 7.58744 18.513 6.99302C19.0258 6.39859 19.7951 6.39859 20.3079 6.99302C20.6925 7.43884 20.6925 8.47908 20.3079 9.07351ZM21.9746 16.801C21.2053 16.801 20.6925 16.2066 20.6925 15.315C20.6925 14.4233 21.2053 13.8289 21.9746 13.8289C22.7438 13.8289 23.2566 14.4233 23.2566 15.315C23.2566 16.2066 22.7438 16.801 21.9746 16.801Z" fill="#393E46"/>
</svg>
