<svg width="23" height="22" viewBox="0 0 23 22" fill="#242423" xmlns="http://www.w3.org/2000/svg">
<path d="M16.4873 13.7354C17.5929 12.3055 18.2542 10.549 18.2542 8.64487C18.2542 3.87825 14.1596 0 9.12707 0C4.09455 0 0 3.87825 0 8.64487C0 13.4115 4.0946 17.2897 9.12712 17.2897C11.1375 17.2897 12.9921 16.6633 14.5019 15.6161L20.4812 21.2796L22.4668 19.3989C22.4668 19.3989 16.4873 13.7354 16.4873 13.7354ZM9.12712 14.6298C5.64274 14.6298 2.80836 11.9451 2.80836 8.64487C2.80836 5.34459 5.64274 2.65997 9.12712 2.65997C12.6115 2.65997 15.4459 5.34459 15.4459 8.64487C15.4459 11.9451 12.6115 14.6298 9.12712 14.6298Z" fill="#242423"/>
</svg>
